<?xml version="1.0" encoding="utf-8" ?><svg xmlns="http://www.w3.org/2000/svg" xmlns:xlink="http://www.w3.org/1999/xlink" width="499" height="500" viewBox="0 0 499 500"><path fill="white" d="M261.378 140.188C267.658 139.943 276.186 140.211 282.695 140.206L329.264 140.203L357.934 140.183C363.69 140.171 371.278 139.948 376.826 140.563C383.364 141.251 389.715 143.162 395.547 146.196C420.61 159.129 430.176 187.581 412.795 210.924C411.21 213.053 407.091 216.6 406.139 218.415C406.756 219.429 409.202 221.536 410.184 222.497C419.593 231.714 424.741 241.866 423.686 255.321C421.831 278.989 399.635 294.876 378.08 299.82C368.652 301.982 359.918 301.623 350.413 301.618L326.586 301.588L250.189 301.584L221.239 301.714C215.4 301.733 208.455 301.892 202.689 301.55C204.83 297.348 207.651 293.177 209.493 288.864C210.987 285.366 212.315 281.301 213.569 277.689C215.666 271.677 217.724 265.652 219.743 259.614L238.807 202.259L323.238 202.237L348.184 202.236C354.865 202.235 361.641 202.495 368.242 201.48C373.672 200.645 378.628 195.942 378.811 190.29C379.279 175.814 361.179 177.642 351.586 177.749C345.142 177.84 338.697 177.894 332.253 177.913L278.972 177.938C268.968 177.936 258.186 178.119 248.23 177.832C248.889 176.301 249.372 174.525 249.9 172.93C252.219 165.926 254.866 159.041 257.327 152.084C258.716 148.156 259.917 144.074 261.378 140.188ZM260.932 264.539C262.737 264.299 264.556 264.419 266.37 264.457C272.78 264.589 279.188 264.528 285.599 264.509L343.819 264.382C352.538 264.41 363.316 265.145 371.684 263.349C375.047 262.273 378.18 260.086 379.852 256.913C381.191 254.342 381.44 251.34 380.542 248.584C377.899 240.457 368.254 239.538 361.076 239.544C353.606 239.551 346.134 239.537 338.663 239.539L287.01 239.603L275.325 239.623C273.955 239.622 270.705 239.694 269.525 239.535C267.639 244.93 265.782 250.335 263.954 255.751C263.225 257.936 261.813 262.625 260.932 264.539Z"/><path fill="white" d="M169.283 84.3668C182.526 84.0161 196.799 84.2741 210.092 84.2752L284.879 84.2678L313.747 84.2284C318.172 84.2268 324.099 84.4778 328.389 84.1921C325.567 86.9056 322.71 90.5052 320.109 93.4977C312.214 102.582 305.92 111.173 299.802 121.48L207.566 121.484L185.179 121.458C178.606 121.424 169.574 120.883 163.406 122.436C158.643 126.698 157.153 140.249 154.883 147.316C158.637 147.235 162.673 147.48 166.479 147.488L198.975 147.49C213.039 147.513 228.882 147.122 242.793 147.568L242.153 149.86L228.707 186.46C206.89 186.793 184.934 186.266 163.103 186.381C157.439 186.411 151.559 186.445 145.918 186.269C145.361 189.176 143.996 193.627 143.187 196.618L137.72 216.984C139.029 217.396 143.893 219.146 144.271 220.379C145.75 225.206 140.945 238.473 136.363 240.503C133.592 241.731 125.542 237.783 122.575 236.503C122.213 231.03 121.074 229.33 116.03 227.215C117.914 220.345 126.346 202.374 125.116 196.267C124.608 193.749 106.142 187.421 102.423 186.143C105.501 173.51 109.575 160.439 112.794 147.665C114.982 138.981 118.452 123.476 121.654 115.803C124.118 109.752 127.68 104.209 132.16 99.453C142.333 88.5511 154.712 84.8337 169.283 84.3668Z"/><path fill="white" d="M217.774 353.097C228.055 353.215 241.622 351.495 249.558 359.167C259.988 369.251 259.675 384.432 249.925 394.822C241.414 403.46 228.746 401.935 217.567 401.673C217.455 396.89 217.172 354.835 217.774 353.097ZM242.789 388.43C244.638 386.519 245.703 384.994 246.397 382.385C247.838 376.971 247.01 370.118 242.842 366.067C238.751 362.089 232.701 362.465 227.443 362.457C227.722 372.325 227.392 382.255 227.713 392.213C233.45 392.542 238.059 392.661 242.598 388.604L242.789 388.43Z"/><path fill="white" d="M285.74 353.011C288.099 353.027 290.575 353.14 292.943 353.21C296.006 364.138 298.085 373.598 301.928 384.36C303.346 378.43 305.278 372.129 306.837 366.192C307.488 363.715 309.586 355.301 310.524 353.474C312.112 352.738 318.692 353.165 320.961 353.152C320.028 356.992 318.547 361.408 317.434 365.313C315.599 372.061 313.654 378.779 311.601 385.464C310.037 390.58 308.075 396.458 306.798 401.595C303.926 401.762 300.157 401.695 297.225 401.72C294.722 393.705 292.864 385.396 290.333 377.374C289.926 376.083 289.664 374.844 289.463 373.509C286.634 382.41 283.832 392.68 281.262 401.753C277.992 401.836 274.988 401.784 271.716 401.706C270.495 396.808 268.803 391.389 267.386 386.49L261.954 367.441C261.347 365.369 258.007 355.04 258.059 353.61C258.682 353.004 258.597 353.199 259.692 353.073C262.447 353.151 265.611 353.06 268.391 353.036C270.862 363.799 273.786 373.959 276.767 384.576C280.201 373.917 282.532 363.564 285.74 353.011Z"/><path fill="white" d="M378.404 352.858C382.098 352.415 390.485 353.071 393.937 354.446C407.297 359.764 407.39 378.691 394.18 384.488C396.937 387.366 404.42 398.18 406.941 401.776C403.003 401.769 399.066 401.737 395.128 401.681C394.657 401.114 394.215 400.4 393.8 399.776C391.627 396.853 386.289 388.812 384.558 385.709L380.422 385.764C380.197 389.866 380.097 397.859 380.466 401.819C377.48 401.612 373.305 401.714 370.225 401.706C369.773 385.935 370.932 368.409 370.053 353.131C372.838 353.112 375.623 353.02 378.404 352.858ZM380.551 377.053C384.337 377.119 388.421 377.576 391.508 375.133C393.441 372.797 393.778 371.338 393.564 368.321C393.078 361.458 385.599 362.568 380.886 362.371C380.055 363.605 380.486 374.793 380.551 377.053Z"/><path fill="white" d="M172.703 353.029C179.581 353.344 189.198 352.219 195.506 354.247C209.695 358.81 209.825 377.874 197.054 384.547C200.433 388.728 205.83 397.057 208.965 401.722L200.937 401.671L197.792 401.64C196.867 400.543 194.921 397.525 194.068 396.238C191.643 392.58 189.328 389.229 186.715 385.705C185.141 385.829 184.163 385.901 182.577 385.851C182.446 391.074 182.536 396.547 182.548 401.789C179.29 401.729 176.033 401.686 172.775 401.662C172.255 390.689 172.648 379.123 172.499 368.077C172.472 366.006 172.384 354.668 172.703 353.029ZM182.532 377.222C186.636 377.29 190.751 377.776 194.196 375.19C195.915 373.231 196.192 371.801 196.218 369.257C196.296 361.445 188.106 362.181 182.64 362.256C182.482 367.382 182.534 372.116 182.532 377.222Z"/><path fill="white" d="M83.417 189.846C86.3876 189.547 89.386 189.692 92.3141 190.275C97.9048 191.347 114.558 197.533 119.732 200.228C118.525 204.524 116.75 208.992 115.255 213.255C114.252 215.636 110.852 228.515 108.529 229.175C104.647 230.278 93.3116 224.758 89.2499 223.339C87.8906 222.863 85.3946 222.032 84.3149 221.545C84.04 218.978 87.0716 213.062 85.345 209.428C83.9974 206.592 82.3017 205.211 79.4822 203.971C71.5542 200.484 62.1312 204.082 54.843 207.523C52.9818 208.402 51.4475 209.66 49.5096 210.456L49.346 210.293C49.5379 209.986 49.7438 209.688 49.9631 209.4C56.871 200.506 67.9056 192.306 79.1477 190.464C80.5561 190.233 82.0008 190.038 83.417 189.846Z"/><path fill="white" d="M99.6274 353.09C102.313 352.917 106.808 353.086 109.752 353.03L109.673 385.073C109.666 390.168 109.935 396.819 109.571 401.733C106.312 401.607 102.816 401.693 99.5346 401.722C99.51 395.841 99.2655 387.659 99.6421 381.982C92.804 381.908 86.8054 381.754 79.8945 381.996C80.1542 388.325 79.4883 395.26 79.9625 401.695L69.7727 401.702C69.5363 393.06 69.6639 383.806 69.6516 375.127C69.6461 371.194 69.2457 356.075 70.0317 353.06C73.1062 352.992 76.7735 353.112 79.9226 353.102C80.1252 359.428 79.8706 366.123 80.0764 372.736C85.621 372.744 94.3559 372.467 99.636 372.857C99.2078 368.034 99.5539 358.176 99.6274 353.09Z"/><path fill="white" d="M334.24 353.07C337.433 353.171 340.747 353.124 343.952 353.119C349.881 369.232 356.144 385.423 361.759 401.581C358.317 401.625 354.637 401.703 351.218 401.524C350.208 399.008 349.108 395.138 348.409 392.509C347.081 392.495 345.648 392.394 344.312 392.325C339.59 392.307 334.481 392.381 329.791 392.165C328.888 395.233 327.669 398.598 326.683 401.711L316.219 401.668C316.351 401.108 316.496 400.551 316.655 399.998C319.463 390.26 324.33 378.409 327.923 368.598C329.101 365.408 330.253 362.208 331.381 359C332.014 357.194 332.695 353.929 334.24 353.07ZM332.717 384.006L339.312 384.05L344.991 384.005C344.116 381.612 340.084 367.522 339.107 366.446C336.544 372.064 334.624 378.127 332.717 384.006Z"/><path fill="white" d="M136.155 353.063C139.481 353.119 142.808 353.111 146.134 353.038C149.706 362.466 153.217 371.917 156.667 381.39C159.138 388.094 161.72 394.801 163.94 401.589C160.482 401.524 156.93 401.635 153.425 401.583C152.603 398.451 151.512 395.425 150.661 392.269L146.062 392.236C142.104 392.259 135.692 392.452 131.939 392.064C131.136 395.097 129.802 398.806 128.661 401.722L118.521 401.482C119.467 397.013 122.433 389.442 124.139 384.965C126.739 378.154 129.291 371.323 131.795 364.475C132.349 362.96 135.373 353.754 136.155 353.063ZM134.848 384.03L140.938 384.079C143.035 384.076 145.247 384.035 147.335 384.09C145.992 381.211 142.541 367.417 141.032 366.351C138.253 373.169 137.063 377.332 134.848 384.03Z"/><path fill="white" d="M52.0681 288.503C52.5315 288.551 52.9918 288.624 53.4471 288.722C58.3644 289.763 65.0509 292.645 70.5384 294.615C74.8288 296.155 89.3598 301.055 92.2642 303.985C94.121 305.858 89.497 315.855 88.895 318.66C88.3896 321.015 86.2036 324.451 83.5182 325.734C79.4684 325.3 70.1211 321.236 65.7525 319.705C59.2079 317.411 47.9089 314.343 43.0647 309.801C43.2284 305.336 44.8066 301.365 46.165 297.162C47.3392 293.53 48.365 290.267 52.0681 288.503Z"/><path fill="white" d="M415 352.971C421.685 353.183 428.524 352.814 435.225 352.998C438.309 353.083 441.483 353.112 444.561 352.996C444.47 356.171 444.517 359.513 444.519 362.702C439.586 362.122 429.531 363.219 425.491 362.467C425.511 365.903 425.485 369.338 425.413 372.773C430.481 372.604 436.305 372.711 441.43 372.692C441.401 375.792 441.43 378.892 441.515 381.992C436.136 381.728 430.815 381.822 425.436 381.958C425.473 383.588 425.418 385.416 425.405 387.062C425.423 388.98 425.436 390.606 425.304 392.515C431.202 392.163 438.523 392.507 444.702 392.313C444.5 395.195 444.563 398.983 444.574 401.894C441.358 401.636 436.887 401.733 433.593 401.729L415.214 401.722C414.714 386.081 415.923 368.389 415 352.971Z"/><path fill="white" d="M65.1592 276.571C66.4645 276.848 72.0274 278.97 73.6186 279.608C78.1236 281.413 83.7424 283.18 88.0444 285.218L86.9275 287.954C86.3586 287.987 85.0974 288.014 84.601 287.838C79.8102 286.134 68.235 282.245 64.2838 279.906C64.5456 278.787 64.8375 277.675 65.1592 276.571Z"/><path fill="white" d="M62.532 283.867C65.634 284.608 70.6077 286.802 73.7095 288.024C77.7093 289.571 81.7592 290.985 85.8526 292.263C85.7205 293.72 85.7759 294.903 84.9146 295.956C77.121 293.085 68.9909 290.219 61.2826 287.252C61.6288 286.054 61.8666 284.907 62.532 283.867Z"/><path fill="white" d="M67.335 270.593C69.6224 270.882 88.6699 277.872 89.6651 279.009C89.8663 280.167 89.6733 280.073 89.2025 281.363C86.2195 280.589 68.8135 274.583 67.164 272.939C66.8515 272.009 67.077 271.595 67.335 270.593Z"/><path fill="white" d="M69.1436 264.59C72.0364 265.408 90.6249 272.194 91.7462 273.346C91.9747 274.159 91.5847 274.748 91.2442 275.569C89.4583 275.346 69.4826 267.996 68.8098 267.168C68.6098 266.258 68.9069 265.504 69.1436 264.59Z"/><path fill="white" d="M71.3552 259.372C71.4356 259.379 71.5159 259.385 71.5962 259.392C78.8456 261.44 86.1951 264.735 93.2838 267.411C93.433 267.608 93.5821 267.805 93.7313 268.002C93.849 268.854 93.7207 269.058 93.4543 269.862C90.6097 269.714 73.1232 263.238 71.1455 261.726C70.8426 260.887 71.1278 260.265 71.3552 259.372Z"/><path fill="white" d="M73 254.177C75.4587 254.144 93.7799 260.899 95.4925 262.604C95.7869 263.371 95.5166 264.036 95.3307 264.873C92.7694 264.333 74.9264 257.592 73.1408 255.991C72.7408 254.962 72.8377 255.354 73 254.177Z"/><path fill="white" d="M79.3986 237.696C82.0062 237.729 99.067 244.509 101.324 246.164C101.737 246.953 101.53 247.526 101.395 248.43C98.1442 247.659 81.7284 241.489 79.4328 239.772C79.0386 238.798 79.2126 238.915 79.3986 237.696Z"/><path fill="white" d="M75.0341 248.637C77.2124 248.772 96.1439 255.772 97.4029 256.888C97.7719 257.752 97.5722 258.209 97.3872 259.14C94.6752 258.734 76.457 252.13 74.9624 250.521C74.6599 249.792 74.8473 249.414 75.0341 248.637Z"/><path fill="white" d="M77.5395 243.199C81.6233 243.868 94.1587 249.65 99.2096 251.056C99.3171 251.198 99.4246 251.34 99.532 251.482C99.614 252.378 99.3486 252.905 99.0589 253.757C92.8954 252.08 86.5802 249.188 80.5455 247.053C79.2336 246.588 77.6034 246.016 76.9975 244.741C77.0671 243.626 76.8964 244.122 77.5395 243.199Z"/><path fill="white" d="M82.0227 231.975C84.777 232.61 101.995 238.776 103.458 240.602C103.469 241.551 103.433 241.296 102.869 242.246C102.343 242.108 101.819 241.963 101.297 241.81C98.6302 241.034 82.1294 235.182 81.2084 233.508C81.3333 232.623 81.4303 232.626 82.0227 231.975Z"/><path fill="white" d="M83.7855 226.211C86.1191 226.463 102.503 232.634 105.387 234.355C105.827 234.618 105.627 236.064 105.516 236.669C102.309 235.683 84.7951 229.744 83.5494 227.904C83.4277 227.026 83.4894 227.018 83.7855 226.211Z"/></svg>